<svg width="20" height="26" viewBox="0 0 20 26" fill="none" xmlns="http://www.w3.org/2000/svg">
<g id="xmark-solid 1">
<path id="Vector" d="M17.8438 7.64768C18.4949 7.01292 18.4949 5.98206 17.8438 5.34729C17.1928 4.71252 16.1355 4.71252 15.4845 5.34729L10.0001 10.6996L4.5105 5.35237C3.85946 4.7176 2.80216 4.7176 2.15112 5.35237C1.50008 5.98713 1.50008 7.01799 2.15112 7.65276L7.64071 13L2.15633 18.3524C1.50529 18.9871 1.50529 20.018 2.15633 20.6528C2.80737 21.2875 3.86466 21.2875 4.51571 20.6528L10.0001 15.3004L15.4897 20.6477C16.1407 21.2824 17.198 21.2824 17.849 20.6477C18.5001 20.0129 18.5001 18.9821 17.849 18.3473L12.3595 13L17.8438 7.64768Z" fill="white"/>
</g>
</svg>
