<svg width="22" height="25" viewBox="0 0 22 25" fill="none" xmlns="http://www.w3.org/2000/svg">
<g id="square-js 1">
<path id="Vector" d="M19.6429 1.5625H2.35714C1.0558 1.5625 0 2.6123 0 3.90625V21.0938C0 22.3877 1.0558 23.4375 2.35714 23.4375H19.6429C20.9442 23.4375 22 22.3877 22 21.0938V3.90625C22 2.6123 20.9442 1.5625 19.6429 1.5625ZM11.9723 18.623C11.9723 20.752 10.7152 21.7236 8.88348 21.7236C7.22857 21.7236 6.27098 20.874 5.77991 19.8438L7.46429 18.833C7.78839 19.4043 8.08304 19.8877 8.79509 19.8877C9.47277 19.8877 9.90491 19.624 9.90491 18.5938V11.6064H11.9723V18.623ZM16.8634 21.7236C14.9433 21.7236 13.7009 20.8154 13.0969 19.624L14.7812 18.6572C15.2232 19.375 15.8027 19.9072 16.8192 19.9072C17.6737 19.9072 18.2237 19.4824 18.2237 18.8916C18.2237 18.1885 17.6638 17.9395 16.7161 17.5244L16.2004 17.3047C14.7076 16.6748 13.7205 15.8789 13.7205 14.2041C13.7205 12.6611 14.904 11.4893 16.7455 11.4893C18.0616 11.4893 19.0045 11.9434 19.6821 13.1348L18.0714 14.1602C17.7179 13.5303 17.3348 13.2812 16.7406 13.2812C16.1366 13.2812 15.7536 13.6621 15.7536 14.1602C15.7536 14.7754 16.1366 15.0244 17.0254 15.4102L17.5411 15.6299C19.2991 16.377 20.2862 17.1436 20.2862 18.8623C20.2862 20.708 18.8228 21.7236 16.8634 21.7236Z" fill="black"/>
</g>
</svg>
