<svg width="128" height="59" viewBox="0 0 128 59" fill="none" xmlns="http://www.w3.org/2000/svg">
<g clip-path="url(#clip0_20_10)">
<path d="M21.0998 22.3614C22.0429 22.3614 22.8073 21.6024 22.8073 20.6662C22.8073 19.73 22.0429 18.971 21.0998 18.971C20.1568 18.971 19.3923 19.73 19.3923 20.6662C19.3923 21.6024 20.1568 22.3614 21.0998 22.3614Z" fill="#A02065"/>
<path d="M29.1953 22.3614C30.1383 22.3614 30.9028 21.6024 30.9028 20.6662C30.9028 19.73 30.1383 18.971 29.1953 18.971C28.2523 18.971 27.4878 19.73 27.4878 20.6662C27.4878 21.6024 28.2523 22.3614 29.1953 22.3614Z" fill="#652D90"/>
<path d="M35.833 22.3614C36.776 22.3614 37.5405 21.6024 37.5405 20.6662C37.5405 19.73 36.776 18.971 35.833 18.971C34.89 18.971 34.1255 19.73 34.1255 20.6662C34.1255 21.6024 34.89 22.3614 35.833 22.3614Z" fill="#652D90"/>
<path d="M42.8857 22.3614C43.8287 22.3614 44.5932 21.6024 44.5932 20.6662C44.5932 19.73 43.8287 18.971 42.8857 18.971C41.9427 18.971 41.1782 19.73 41.1782 20.6662C41.1782 21.6024 41.9427 22.3614 42.8857 22.3614Z" fill="#652D90"/>
<path d="M49.9383 22.3614C50.8814 22.3614 51.6458 21.6024 51.6458 20.6662C51.6458 19.73 50.8814 18.971 49.9383 18.971C48.9953 18.971 48.2308 19.73 48.2308 20.6662C48.2308 21.6024 48.9953 22.3614 49.9383 22.3614Z" fill="#A02065"/>
<path d="M57.4059 22.3614C58.3489 22.3614 59.1134 21.6024 59.1134 20.6662C59.1134 19.73 58.3489 18.971 57.4059 18.971C56.4628 18.971 55.6984 19.73 55.6984 20.6662C55.6984 21.6024 56.4628 22.3614 57.4059 22.3614Z" fill="#652D90"/>
<path d="M64.4585 22.3614C65.4015 22.3614 66.166 21.6024 66.166 20.6662C66.166 19.73 65.4015 18.971 64.4585 18.971C63.5154 18.971 62.751 19.73 62.751 20.6662C62.751 21.6024 63.5154 22.3614 64.4585 22.3614Z" fill="#8BC53F"/>
<path d="M78.9787 22.3614C79.9218 22.3614 80.6862 21.6024 80.6862 20.6662C80.6862 19.73 79.9218 18.971 78.9787 18.971C78.0357 18.971 77.2712 19.73 77.2712 20.6662C77.2712 21.6024 78.0357 22.3614 78.9787 22.3614Z" fill="#8BC53F"/>
<path d="M71.5112 22.3614C72.4542 22.3614 73.2187 21.6024 73.2187 20.6662C73.2187 19.73 72.4542 18.971 71.5112 18.971C70.5682 18.971 69.8037 19.73 69.8037 20.6662C69.8037 21.6024 70.5682 22.3614 71.5112 22.3614Z" fill="#A02065"/>
<path d="M89.3503 22.3614C90.2933 22.3614 91.0578 21.6024 91.0578 20.6662C91.0578 19.73 90.2933 18.971 89.3503 18.971C88.4073 18.971 87.6428 19.73 87.6428 20.6662C87.6428 21.6024 88.4073 22.3614 89.3503 22.3614Z" fill="#A02065"/>
<path d="M94.7435 22.3614C95.6865 22.3614 96.451 21.6024 96.451 20.6662C96.451 19.73 95.6865 18.971 94.7435 18.971C93.8005 18.971 93.036 19.73 93.036 20.6662C93.036 21.6024 93.8005 22.3614 94.7435 22.3614Z" fill="#8BC53F"/>
<path d="M107.076 22.3614C108.019 22.3614 108.784 21.6024 108.784 20.6662C108.784 19.73 108.019 18.971 107.076 18.971C106.133 18.971 105.369 19.73 105.369 20.6662C105.369 21.6024 106.133 22.3614 107.076 22.3614Z" fill="#A02065"/>
<path d="M23.5327 34.3013C25.4922 34.8609 26.4722 35.8155 26.4725 37.1651C26.4799 37.5576 26.3968 37.9465 26.2296 38.3022C26.0624 38.6578 25.8155 38.9708 25.5078 39.2172C24.7498 39.7959 23.8073 40.0841 22.8527 40.0292C22.19 40.033 21.5315 39.9251 20.9052 39.7101C20.435 39.5672 19.989 39.355 19.5821 39.0808L19.1779 38.7524L20.0599 37.439C20.1454 37.512 20.2709 37.6092 20.4366 37.7308C20.7458 37.9241 21.0754 38.0832 21.4196 38.205C21.8801 38.3938 22.3729 38.4928 22.871 38.4968C23.2918 38.5205 23.7086 38.405 24.0562 38.1685C24.1881 38.0793 24.2962 37.9597 24.3714 37.8199C24.4466 37.6802 24.4866 37.5244 24.488 37.3659C24.4866 37.1892 24.4445 37.0151 24.3649 36.8569C24.2853 36.6988 24.1702 36.5609 24.0286 36.4538C23.487 36.0919 22.8828 35.8322 22.2464 35.6877C21.5083 35.5042 20.8309 35.1333 20.2807 34.6114C20.0594 34.3982 19.8835 34.143 19.7635 33.861C19.6436 33.579 19.582 33.2759 19.5824 32.9697C19.581 32.6064 19.6631 32.2476 19.8223 31.9204C19.9815 31.5933 20.2137 31.3065 20.5013 31.0818C21.2249 30.5288 22.1252 30.2535 23.0369 30.3065C23.6176 30.3054 24.1947 30.3978 24.7457 30.5802C25.1736 30.7055 25.5818 30.8897 25.9583 31.1274L26.3441 31.401L25.4433 32.7325C25.3699 32.6718 25.2658 32.5896 25.131 32.4861C24.875 32.3214 24.6006 32.1867 24.3134 32.0848C23.9259 31.9252 23.511 31.8415 23.0915 31.8384C22.699 31.8148 22.3093 31.9171 21.9798 32.1302C21.8619 32.2049 21.7643 32.3071 21.6954 32.4279C21.6265 32.5487 21.5886 32.6845 21.5848 32.8233C21.5883 32.9806 21.6273 33.1352 21.6988 33.2757C21.7704 33.4162 21.8727 33.5389 21.9983 33.635C22.4594 33.9572 22.9813 34.1838 23.5327 34.3013Z" fill="black"/>
<path d="M28.493 39.8465V30.4888H30.2752L30.3855 32.0758C30.6429 31.6593 30.9806 31.2974 31.3793 31.0109C31.778 30.7244 32.2297 30.5189 32.7087 30.4061C33.1876 30.2934 33.6842 30.2757 34.17 30.3541C34.6558 30.4324 35.1212 30.6053 35.5396 30.8627C36.1269 31.2565 36.5688 31.8297 36.7982 32.4954C37.0669 31.8226 37.5426 31.2512 38.1577 30.8627C38.7764 30.4868 39.4903 30.2938 40.2156 30.3064C40.6867 30.2934 41.1553 30.3793 41.5906 30.5585C42.026 30.7377 42.4183 31.0061 42.742 31.3462C43.454 32.1623 43.8137 33.2239 43.7433 34.3013V39.8466H41.7222V34.958C41.779 34.2064 41.5641 33.4593 41.116 32.8509C40.9261 32.6242 40.6869 32.4432 40.4164 32.3216C40.1459 32.1999 39.8511 32.1408 39.5542 32.1486C39.2331 32.1389 38.9134 32.1946 38.6147 32.3123C38.3161 32.43 38.0449 32.6071 37.8178 32.8327C37.5681 33.121 37.3786 33.4558 37.2603 33.8175C37.142 34.1792 37.0973 34.5606 37.1288 34.9396V39.8466H35.1077V34.958C35.1645 34.2064 34.9495 33.4593 34.5013 32.8509C34.3115 32.6242 34.0723 32.4432 33.8018 32.3215C33.5313 32.1999 33.2366 32.1407 32.9397 32.1486C32.6186 32.139 32.2988 32.1947 32.0002 32.3124C31.7016 32.4301 31.4304 32.6072 31.2032 32.8328C30.9536 33.1212 30.7641 33.4559 30.6458 33.8176C30.5275 34.1793 30.4828 34.5607 30.5143 34.9396V39.8466L28.493 39.8465Z" fill="black"/>
<path d="M46.7842 35.0674C47.5525 34.479 48.5067 34.1815 49.4759 34.2283C50.456 34.1848 51.4198 34.4887 52.1951 35.0856V34.5021C52.2297 34.1678 52.1898 33.83 52.0782 33.5127C51.9666 33.1954 51.786 32.9064 51.5493 32.6661C51.3125 32.4259 51.0254 32.2403 50.7084 32.1226C50.3913 32.0048 50.052 31.9578 49.7146 31.9848C49.256 31.9819 48.8 32.0528 48.3642 32.1946C48.0394 32.2869 47.7321 32.4317 47.4547 32.6232L47.179 32.8239L46.3155 31.5288C46.3524 31.4955 46.4032 31.4492 46.4682 31.39C46.6119 31.2785 46.7648 31.1792 46.9253 31.0933C47.4837 30.7644 48.0985 30.5406 48.7386 30.4331C49.1752 30.3481 49.6191 30.3057 50.064 30.3066C50.6212 30.2749 51.1791 30.3565 51.7035 30.5462C52.2279 30.736 52.7077 31.03 53.1138 31.4102C53.4981 31.8288 53.7937 32.3199 53.9831 32.8541C54.1724 33.3884 54.2517 33.955 54.2162 34.5203V39.8468H52.6544L52.4708 38.9347C51.6755 39.5886 50.689 39.9703 49.6577 40.0228C48.6265 40.0754 47.6058 39.7961 46.7473 39.2265C46.4335 38.9823 46.1812 38.6689 46.0106 38.3111C45.84 37.9533 45.7557 37.561 45.7644 37.1653C45.7596 36.7612 45.8491 36.3614 46.0261 35.9974C46.203 35.6334 46.4625 35.3151 46.7842 35.0674ZM49.9722 38.6426C50.5708 38.6763 51.1651 38.5232 51.6717 38.2049C51.8602 38.0857 52.0155 37.9213 52.1231 37.7268C52.2307 37.5323 52.2871 37.314 52.2873 37.0922C52.2865 36.8692 52.2298 36.6499 52.1223 36.4541C52.0149 36.2583 51.86 36.0921 51.6717 35.9705C51.1674 35.646 50.5722 35.4894 49.9722 35.5232C49.4042 35.4923 48.8419 35.6495 48.3736 35.9702C48.1915 36.096 48.0428 36.2637 47.9405 36.4591C47.8381 36.6545 47.785 36.8716 47.7858 37.0918C47.7865 37.3093 47.8404 37.5233 47.9428 37.7155C48.0451 37.9077 48.193 38.0724 48.3736 38.1954C48.8418 38.5163 49.4041 38.6736 49.9722 38.6426Z" fill="black"/>
<path d="M56.6046 39.8465V30.4889H58.4054L58.5339 32.4589C59.2073 31.0241 60.4383 30.3066 62.2269 30.3064L62.1902 32.3494H61.7861C61.3577 32.3233 60.9286 32.387 60.5266 32.5363C60.1246 32.6856 59.7587 32.9171 59.4527 33.2159C58.8459 33.9563 58.5498 34.9003 58.6259 35.8517V39.8465H56.6046ZM65.6077 28.1723V30.4889H68.9149V32.1487H65.6077V36.6178C65.6077 37.6638 66.0854 38.1867 67.0409 38.1865C67.2994 38.1855 67.5574 38.1642 67.8125 38.1227C68.0818 38.0802 68.2901 38.0407 68.4372 38.0041L68.6578 37.9494L68.9149 39.6275C68.1737 39.9208 67.379 40.0575 66.5816 40.0289C66.1828 40.0512 65.7835 39.9951 65.4066 39.8636C65.0298 39.7321 64.6828 39.5279 64.3858 39.2628C64.1076 38.9724 63.893 38.6281 63.7554 38.2513C63.6179 37.8746 63.5604 37.4737 63.5867 37.0738V28.1719L65.6077 28.1723Z" fill="black"/>
<path d="M80.1592 27.0777V39.8465H78.4874L78.2855 38.1867C77.9208 38.7698 77.4077 39.247 76.798 39.5705C76.1884 39.8939 75.5036 40.0521 74.8127 40.0291C74.2009 40.0368 73.5943 39.9166 73.0324 39.6762C72.4705 39.4358 71.9658 39.0806 71.5514 38.6337C70.6781 37.6915 70.1957 36.4566 70.2008 35.1762C70.206 33.8959 70.6982 32.6647 71.5789 31.7294C71.9988 31.2751 72.5103 30.9137 73.0801 30.6685C73.6499 30.4234 74.2653 30.3001 74.8863 30.3066C75.5211 30.2778 76.1528 30.4102 76.7218 30.691C77.2908 30.9719 77.7784 31.392 78.1385 31.9118V27.0777H80.1592ZM77.3667 33.0152C77.0876 32.7318 76.7526 32.5086 76.3827 32.3595C76.0128 32.2104 75.6159 32.1387 75.2168 32.1487C74.819 32.1381 74.4234 32.2096 74.0549 32.3588C73.6864 32.5079 73.3532 32.7315 73.0764 33.0152C72.5273 33.5994 72.2219 34.3687 72.2219 35.1678C72.2219 35.9668 72.5273 36.7361 73.0764 37.3203C73.3532 37.6041 73.6864 37.8276 74.0549 37.9768C74.4234 38.1259 74.819 38.1974 75.2168 38.1867C75.6159 38.1968 76.0128 38.1251 76.3827 37.976C76.7526 37.827 77.0876 37.6037 77.3667 37.3203C77.9212 36.7388 78.2303 35.9685 78.2303 35.1678C78.2303 34.367 77.9212 33.5967 77.3667 33.0152Z" fill="black"/>
<path d="M83.292 35.0673C84.0603 34.479 85.0146 34.1816 85.9838 34.2283C86.964 34.1847 87.9278 34.4886 88.7032 35.0856V34.5021C88.7377 34.1678 88.6978 33.83 88.5862 33.5127C88.4746 33.1955 88.294 32.9065 88.0572 32.6662C87.8205 32.426 87.5334 32.2404 87.2164 32.1227C86.8993 32.0049 86.5601 31.9578 86.2226 31.9848C85.7641 31.9819 85.308 32.0527 84.8722 32.1946C84.5474 32.2869 84.2401 32.4317 83.9626 32.6232L83.6871 32.8239L82.8235 31.5288L82.9763 31.39C83.1198 31.2785 83.2725 31.1792 83.4328 31.0933C83.9913 30.7645 84.606 30.5407 85.2461 30.4331C85.6828 30.3481 86.1268 30.3057 86.5718 30.3066C87.1291 30.2749 87.6869 30.3565 88.2113 30.5463C88.7357 30.736 89.2156 31.03 89.6216 31.4102C90.0059 31.8288 90.3015 32.3199 90.4909 32.8542C90.6802 33.3884 90.7595 33.955 90.7241 34.5203V39.8467H89.1624L88.9786 38.9347C88.1834 39.5886 87.1969 39.9703 86.1657 40.0228C85.1345 40.0754 84.1137 39.7961 83.2553 39.2265C82.9414 38.9823 82.6891 38.6689 82.5185 38.3112C82.3479 37.9534 82.2635 37.5611 82.2722 37.1653C82.2674 36.7612 82.357 36.3614 82.5339 35.9974C82.7108 35.6334 82.9703 35.3151 83.292 35.0673ZM86.4797 38.6426C87.0784 38.6763 87.6726 38.5232 88.1793 38.2049C88.3678 38.0857 88.523 37.9213 88.6306 37.7268C88.7382 37.5323 88.7947 37.314 88.7949 37.0922C88.7941 36.8692 88.7374 36.6499 88.6299 36.4541C88.5225 36.2582 88.3676 36.0921 88.1793 35.9705C87.6749 35.6461 87.0797 35.4896 86.4797 35.5235C85.9117 35.4927 85.3495 35.6499 84.8813 35.9705C84.6992 36.0963 84.5505 36.264 84.4481 36.4594C84.3457 36.6548 84.2925 36.8719 84.2932 37.0922C84.294 37.3096 84.348 37.5236 84.4504 37.7158C84.5528 37.908 84.7007 38.0727 84.8813 38.1957C85.3495 38.5164 85.9117 38.6736 86.4797 38.6426Z" fill="black"/>
<path d="M95.685 28.1722V30.4889H98.9923V32.094H95.685V36.5995C95.685 37.6574 96.1566 38.1864 97.0998 38.1864C97.3614 38.1853 97.6225 38.1642 97.8808 38.1231C98.1563 38.0806 98.3674 38.0411 98.5142 38.0045L98.7348 37.9498L98.9921 39.6096C98.2479 39.9165 97.4455 40.0596 96.6403 40.029C96.2377 40.0698 95.831 40.0207 95.4499 39.8855C95.0689 39.7502 94.7231 39.5321 94.4378 39.2471C94.1525 38.9622 93.9349 38.6175 93.801 38.2384C93.6671 37.8593 93.6202 37.4552 93.6637 37.0558V32.094H91.8262V30.4889H93.6637V28.1722H95.685Z" fill="black"/>
<path d="M101.39 35.0674C102.158 34.479 103.112 34.1816 104.082 34.2283C105.062 34.1847 106.026 34.4886 106.801 35.0856V34.5021C106.836 34.1678 106.796 33.83 106.684 33.5128C106.572 33.1955 106.392 32.9065 106.155 32.6662C105.918 32.426 105.631 32.2404 105.314 32.1227C104.997 32.0049 104.658 31.9578 104.321 31.9848C103.862 31.9819 103.406 32.0527 102.97 32.1946C102.645 32.2869 102.338 32.4317 102.061 32.6232L101.785 32.8239L100.921 31.5288L101.074 31.39C101.218 31.2785 101.37 31.1792 101.531 31.0933C102.089 30.7645 102.704 30.5407 103.344 30.4331C103.781 30.3481 104.225 30.3057 104.67 30.3066C105.227 30.2749 105.785 30.3565 106.309 30.5463C106.834 30.736 107.313 31.03 107.719 31.4102C108.104 31.8288 108.399 32.3199 108.589 32.8542C108.778 33.3884 108.857 33.955 108.822 34.5203V39.8467H107.26L107.076 38.9347C106.281 39.5886 105.295 39.9703 104.263 40.0228C103.232 40.0754 102.211 39.7961 101.353 39.2265C101.039 38.9823 100.787 38.6689 100.616 38.3112C100.446 37.9534 100.361 37.561 100.37 37.1653C100.365 36.7612 100.455 36.3614 100.632 35.9974C100.809 35.6334 101.068 35.3151 101.39 35.0674ZM104.578 38.6426C105.176 38.6763 105.77 38.5232 106.277 38.2049C106.466 38.0858 106.621 37.9214 106.729 37.7269C106.836 37.5324 106.893 37.3141 106.893 37.0922C106.892 36.8692 106.836 36.6499 106.728 36.4541C106.621 36.2583 106.466 36.0921 106.277 35.9706C105.773 35.6462 105.178 35.4897 104.578 35.5236C104.01 35.4927 103.448 35.6499 102.979 35.9706C102.797 36.0964 102.649 36.2641 102.546 36.4595C102.444 36.6549 102.391 36.872 102.392 37.0922C102.393 37.3096 102.446 37.5236 102.549 37.7158C102.651 37.9081 102.799 38.0727 102.979 38.1958C103.448 38.5164 104.01 38.6736 104.578 38.6426Z" fill="black"/>
</g>
<defs>
<clipPath id="clip0_20_10">
<rect width="128" height="59" fill="white"/>
</clipPath>
</defs>
</svg>
