<svg width="9" height="8" viewBox="0 0 9 8" fill="none" xmlns="http://www.w3.org/2000/svg">
<path d="M8.73364 1.36623C9.08504 1.05388 9.08504 0.546619 8.73364 0.234265C8.38224 -0.0780884 7.81157 -0.0780884 7.46017 0.234265L4.5 2.86803L1.53701 0.236764C1.18562 -0.0755896 0.614946 -0.0755896 0.263548 0.236764C-0.0878494 0.549118 -0.0878494 1.05638 0.263548 1.36873L3.22653 4L0.26636 6.63376C-0.0850382 6.94612 -0.0850382 7.45338 0.26636 7.76573C0.617757 8.07809 1.18843 8.07809 1.53982 7.76573L4.5 5.13197L7.46299 7.76324C7.81438 8.07559 8.38505 8.07559 8.73645 7.76324C9.08785 7.45088 9.08785 6.94362 8.73645 6.63127L5.77347 4L8.73364 1.36623Z" fill="#D3D3D3"/>
</svg>
